<svg width="729" height="175" viewBox="0 0 729 175" fill="none" xmlns="http://www.w3.org/2000/svg">
<path fill-rule="evenodd" clip-rule="evenodd" d="M542.291 163.763H511.942V11.7661H542.291V163.758V163.763ZM447.544 144.468C456.214 144.468 469.326 133.417 468.233 105.919L455.721 110.006C443.278 113.88 437.426 120.951 437.426 131.429C437.426 139.565 442.468 144.468 447.578 144.468M471.052 149.975C463.898 158.004 455.682 166.173 437.919 166.173C421.248 166.173 407.429 153.207 407.429 133.631C407.429 114.055 422.374 101.832 445.779 95.1151L467.741 88.5444C465.873 81.2252 458.998 76.6082 451.703 76.6082C442.853 76.6082 436.583 79.0236 430.341 83.4997L424.456 64.5992C433.657 59.1608 443.102 56.7114 455.087 56.7114C473.807 56.7114 497.987 63.0002 497.987 96.1114V163.651L471.057 163.758V149.975H471.052ZM401.153 138.568C401.363 146.135 403.655 152.672 407.39 157.79C398.506 162.8 387.617 166.173 377.426 166.173C334.459 166.173 320.323 133.096 320.323 111.848C320.323 82.5714 342.387 56.7065 378.836 56.7065C388.105 56.7065 396.706 58.981 404.815 63.3161L399.037 83.247C393.186 80.7587 387.086 78.5911 380.674 78.5911C366.611 78.5911 352.3 88.1118 352.3 110.39C352.3 129.893 363.193 144.216 380.849 144.216C388.568 144.216 394.493 142.155 401.188 138.529M284.869 56.7454C296.679 56.7454 307.358 59.5545 316.344 67.6172L305.666 82.8582C300.658 79.0577 294.772 75.3981 288.253 75.3981C282.792 75.3981 278.101 78.5231 278.101 83.9954C278.101 91.4944 293.012 99.6301 298.156 103.397C312.75 114.341 317.295 125.315 317.295 135.264C317.295 150.718 300.692 166.139 278.028 166.139C263.683 166.139 253.531 161.376 242.111 153.28L252.507 136.046C258.29 140.702 266.886 146.636 274.82 146.636C281.87 146.636 287.366 143.01 287.366 136.046C287.366 127.269 274.464 120.557 268.154 116.081C256.7 108.193 248.133 100.058 248.133 86.5907C248.133 69.0412 264.594 56.7114 284.825 56.7114M235.836 163.763H205.697V153.741C196.954 161.595 187.543 166.178 175.733 166.178C153.138 166.178 140.06 152.249 140.06 125.957V59.1657H170.409V122.156C170.409 135.73 176.192 143.686 187.363 143.686C195.364 143.686 205.516 136.828 205.516 119.347V59.1608H235.865V163.758H235.831L235.836 163.763ZM103.865 141.057C114.085 141.057 122.901 138.568 131.78 133.951C132.804 143.545 135.73 151.18 140.382 156.832C129.206 162.552 114.792 166.212 102.631 166.212C51.5546 166.178 19.0898 131.463 19.0898 86.5907C19.0898 44.9502 51.3791 8.74805 103.056 8.74805C116.699 8.74805 129.313 12.9033 141.055 19.406L132.561 42.2529C123.574 37.529 113.247 33.9374 103.056 33.9374C74.4672 33.9374 53.8464 54.4029 53.8464 87.0864C53.8464 119.77 76.6517 141.091 103.865 141.091" fill="black"/>
<path d="M693.902 140.478H587.545V34.472H693.902V34.4137H716.971V11.4794H564.477V163.471H716.971L693.902 140.478Z" fill="#D92D27"/>
<path d="M693.902 34.4137V140.478L716.971 163.471V34.4137H693.902Z" fill="url(#paint0_linear_378_2394)"/>
<defs>
<linearGradient id="paint0_linear_378_2394" x1="705.439" y1="33.5724" x2="705.439" y2="163.066" gradientUnits="userSpaceOnUse">
<stop stop-color="#D92D27"/>
<stop offset="1" stop-color="white" stop-opacity="0"/>
</linearGradient>
</defs>
</svg>
